<?xml version="1.0" encoding="UTF-8" standalone="no"?>
<!DOCTYPE svg PUBLIC "-//W3C//DTD SVG 1.1//EN" "http://www.w3.org/Graphics/SVG/1.1/DTD/svg11.dtd">
<svg width="100%" height="100%" viewBox="0 0 1000 1000" version="1.1" xmlns="http://www.w3.org/2000/svg" xmlns:xlink="http://www.w3.org/1999/xlink" xml:space="preserve" xmlns:serif="http://www.serif.com/" style="fill-rule:evenodd;clip-rule:evenodd;stroke-linejoin:round;stroke-miterlimit:2;">
    <g transform="matrix(55.5592,0,0,55.5592,-55.5918,-55.5918)">
        <path d="M11.983,1.907C11.994,1.856 11.999,1.803 11.999,1.751C11.999,1.339 11.661,1.001 11.249,1.001C11.036,1.001 10.833,1.091 10.691,1.25L2.191,10.75C2.068,10.887 2,11.066 2,11.25C2,11.661 2.339,12 2.75,12L9.322,12L8.017,18.093C8.006,18.144 8.001,18.197 8.001,18.249C8.001,18.661 8.339,18.999 8.751,18.999C8.964,18.999 9.167,18.909 9.309,18.75L17.809,9.25C17.932,9.113 18,8.934 18,8.75C18,8.339 17.661,8 17.25,8L10.678,8L11.983,1.907Z" style="fill:url(#_Linear1);fill-rule:nonzero;"/>
    </g>
    <defs>
        <linearGradient id="_Linear1" x1="0" y1="0" x2="1" y2="0" gradientUnits="userSpaceOnUse" gradientTransform="matrix(10.8628,-13.0015,13.0015,10.8628,4.51564,15.6749)"><stop offset="0" style="stop-color:rgb(93,187,243);stop-opacity:1"/><stop offset="1" style="stop-color:rgb(40,104,156);stop-opacity:1"/></linearGradient>
    </defs>
</svg>
