<?xml version="1.0" standalone="no"?>
<!DOCTYPE svg PUBLIC "-//W3C//DTD SVG 20010904//EN"
 "http://www.w3.org/TR/2001/REC-SVG-20010904/DTD/svg10.dtd">
<svg version="1.0" xmlns="http://www.w3.org/2000/svg"
 width="260.000000pt" height="260.000000pt" viewBox="0 0 260.000000 260.000000"
 preserveAspectRatio="xMidYMid meet">
<metadata>
Created by potrace 1.14, written by Peter Selinger 2001-2017
</metadata>
<g transform="translate(0.000000,260.000000) scale(0.100000,-0.100000)"
fill="#000000" stroke="none">
<path d="M980 1733 c-271 -290 -496 -538 -501 -550 -11 -30 6 -68 38 -82 16
-7 135 -11 360 -11 264 0 334 -3 330 -12 -19 -52 -177 -652 -177 -676 0 -36
27 -62 67 -62 27 0 81 55 524 530 425 457 494 535 497 564 5 57 -9 62 -179 69
-84 4 -242 7 -351 7 -185 0 -199 1 -194 18 33 105 176 651 176 671 0 35 -28
61 -67 61 -27 0 -83 -56 -523 -527z"/>
</g>
</svg>
